<svg width="1080" height="1080" viewBox="0 0 1080 1080" fill="none" xmlns="http://www.w3.org/2000/svg">
<mask id="path-1-outside-1_72_46" maskUnits="userSpaceOnUse" x="185" y="440" width="709" height="200" fill="black">
<rect fill="white" x="185" y="440" width="709" height="200"/>
<path d="M208.772 494.621C202.709 492.698 197.534 489.667 193.246 485.526C188.957 481.386 186.838 475.939 186.887 469.186C187.479 460.363 191.348 453.339 198.495 448.114C209.141 441.903 220.651 439.759 233.022 441.682C237.705 442.273 242.239 443.629 246.626 445.748C251.013 447.868 254.463 450.998 256.977 455.138C258.752 458.243 259.737 461.571 259.934 465.12L251.062 465.194C251.062 465.194 250.964 464.873 250.767 464.232C250.619 463.592 250.422 462.877 250.175 462.088C249.929 461.25 249.707 460.511 249.51 459.87C249.313 459.229 249.214 458.86 249.214 458.761C247.982 455.113 245.788 452.131 242.634 449.815C239.479 447.498 236.078 445.921 232.431 445.083C227.206 443.9 221.883 443.974 216.461 445.304C211.088 446.635 206.504 449.272 202.709 453.216C198.717 457.8 196.794 463.173 196.942 469.334C197.238 473.672 198.84 476.925 201.748 479.094C204.705 481.213 208.18 482.791 212.173 483.826C216.067 485.009 220.01 486.019 224.002 486.857C231.396 488.336 238.518 490.579 245.369 493.585C248.327 494.966 251.112 496.814 253.724 499.131C256.386 501.447 258.505 504.257 260.082 507.56C262.153 512.341 262.99 517.344 262.596 522.569C261.561 530.406 257.692 536.124 250.988 539.722C244.285 543.271 237.409 545.465 230.361 546.303C223.066 547.535 215.327 547.436 207.145 546.007C199.012 544.577 192.876 540.412 188.736 533.511C187.06 530.308 186.148 526.956 186 523.456H196.129C196.129 523.801 196.129 524.121 196.129 524.417C196.08 526.29 196.277 528.139 196.72 529.962C198.939 536.37 203.522 540.486 210.472 542.31C217.422 544.134 223.879 544.405 229.843 543.123C235.216 542.039 240.219 539.698 244.852 536.099C249.485 532.452 252.073 527.72 252.615 521.903C252.418 513.376 248.401 507.338 240.564 503.789C234.452 501.275 228.118 499.353 221.562 498.022C217.225 497.085 212.961 495.951 208.772 494.621Z"/>
<path d="M366.468 542.384C367.898 545.391 370.263 546.993 373.566 547.19H352.495C353.727 547.141 354.639 546.648 355.23 545.711C355.871 544.725 355.994 543.641 355.6 542.458L346.358 520.72L293.495 494.325L273.089 542.458C272.645 543.641 272.719 544.701 273.311 545.637C273.951 546.574 274.888 547.091 276.12 547.19H262.738C266.04 546.993 268.406 545.391 269.836 542.384L312.644 441.164H323.66L366.468 542.384ZM294.678 491.515L344.51 516.432L314.344 445.083L294.678 491.515Z"/>
<path d="M388.125 446.34C388.125 444.91 387.632 443.703 386.646 442.717C385.71 441.731 384.527 441.213 383.098 441.164H403.282C401.852 441.213 400.645 441.731 399.659 442.717C398.722 443.703 398.254 444.91 398.254 446.34V502.411H458.363V446.34C458.363 444.91 457.87 443.703 456.884 442.717C455.948 441.731 454.765 441.213 453.335 441.164H473.519C472.09 441.213 470.882 441.731 469.897 442.717C468.96 443.703 468.492 444.91 468.492 446.34V542.088C468.492 543.468 468.96 544.651 469.897 545.637C470.882 546.623 472.09 547.141 473.519 547.19H453.335C454.765 547.141 455.948 546.623 456.884 545.637C457.87 544.651 458.363 543.468 458.363 542.088V505.775H398.254V542.088C398.254 543.468 398.722 544.651 399.659 545.637C400.645 546.623 401.852 547.141 403.282 547.19H383.098C384.527 547.141 385.71 546.623 386.646 545.637C387.632 544.651 388.125 543.468 388.125 542.088V446.34Z"/>
<path d="M587.225 542.384C588.654 545.391 591.02 546.993 594.322 547.19H573.251C574.483 547.141 575.395 546.648 575.987 545.711C576.627 544.725 576.751 543.641 576.356 542.458L567.115 520.72L514.251 494.325L493.845 542.458C493.402 543.641 493.476 544.701 494.067 545.637C494.708 546.574 495.645 547.091 496.877 547.19H483.495C486.797 546.993 489.163 545.391 490.592 542.384L533.4 441.164H544.417L587.225 542.384ZM515.434 491.515L565.266 516.432L535.101 445.083L515.434 491.515Z"/>
<path d="M623.668 494.621C617.606 492.698 612.43 489.667 608.142 485.526C603.854 481.386 601.735 475.939 601.784 469.186C602.375 460.363 606.245 453.339 613.392 448.114C624.038 441.903 635.547 439.759 647.919 441.682C652.601 442.273 657.136 443.629 661.523 445.748C665.91 447.868 669.36 450.998 671.874 455.138C673.648 458.243 674.634 461.571 674.831 465.12L665.959 465.194C665.959 465.194 665.86 464.873 665.663 464.232C665.515 463.592 665.318 462.877 665.072 462.088C664.825 461.25 664.604 460.511 664.406 459.87C664.209 459.229 664.111 458.86 664.111 458.761C662.878 455.113 660.685 452.131 657.53 449.815C654.376 447.498 650.975 445.921 647.328 445.083C642.103 443.9 636.78 443.974 631.358 445.304C625.985 446.635 621.401 449.272 617.606 453.216C613.613 457.8 611.691 463.173 611.839 469.334C612.135 473.672 613.737 476.925 616.645 479.094C619.602 481.213 623.077 482.791 627.069 483.826C630.963 485.009 634.907 486.019 638.899 486.857C646.292 488.336 653.415 490.579 660.266 493.585C663.223 494.966 666.008 496.814 668.621 499.131C671.282 501.447 673.402 504.257 674.979 507.56C677.049 512.341 677.887 517.344 677.493 522.569C676.458 530.406 672.588 536.124 665.885 539.722C659.182 543.271 652.306 545.465 645.257 546.303C637.962 547.535 630.224 547.436 622.042 546.007C613.909 544.577 607.773 540.412 603.632 533.511C601.956 530.308 601.045 526.956 600.897 523.456H611.026C611.026 523.801 611.026 524.121 611.026 524.417C610.976 526.29 611.174 528.139 611.617 529.962C613.835 536.37 618.419 540.486 625.369 542.31C632.319 544.134 638.776 544.405 644.74 543.123C650.112 542.039 655.115 539.698 659.749 536.099C664.382 532.452 666.969 527.72 667.512 521.903C667.314 513.376 663.297 507.338 655.46 503.789C649.348 501.275 643.015 499.353 636.459 498.022C632.122 497.085 627.858 495.951 623.668 494.621Z"/>
<path d="M736.265 441.164C739.863 441.164 743.412 441.706 746.911 442.791C750.411 443.875 753.713 445.576 756.819 447.892C759.973 450.209 762.487 453.166 764.36 456.765C766.233 460.412 767.194 464.306 767.243 468.447C767.194 472.587 766.233 476.457 764.36 480.055C762.487 483.653 759.973 486.635 756.819 489.001C753.861 491.219 750.682 492.871 747.281 493.955C747.232 494.004 746.591 494.177 745.359 494.473C744.126 494.719 742.648 494.99 740.923 495.286C739.198 495.582 737.67 495.73 736.339 495.73C736.24 495.73 735.18 495.73 733.16 495.73C736.166 497.405 738.729 499.426 740.849 501.792C745.433 506.869 748.908 512.439 751.273 518.502C752.161 520.523 752.974 522.569 753.713 524.639C754.995 528.237 756.498 531.762 758.223 535.212C759.357 537.381 760.885 539.377 762.807 541.201C764.73 543.025 767.12 544.134 769.979 544.528L771.384 544.602C771.778 544.602 772.074 544.725 772.271 544.972C772.517 545.218 772.641 545.514 772.641 545.859C772.641 546.253 772.517 546.574 772.271 546.82C772.024 547.067 771.729 547.19 771.384 547.19C770.792 547.19 770.225 547.165 769.683 547.116C762.585 546.377 756.819 543.468 752.383 538.391C747.749 533.019 744.25 527.424 741.884 521.608C740.75 519.044 739.715 516.457 738.779 513.844C737.694 510.788 736.462 507.781 735.082 504.824C733.899 502.113 732.174 499.796 729.906 497.874C728.28 496.691 726.53 495.976 724.657 495.73C721.946 495.73 719.186 495.73 716.376 495.73C711.497 495.73 707.923 495.73 705.656 495.73V542.088C705.656 543.468 706.124 544.651 707.061 545.637C708.046 546.623 709.254 547.141 710.683 547.19H690.499C691.879 547.141 693.038 546.648 693.974 545.711C694.911 544.775 695.428 543.616 695.527 542.236V446.34C695.527 444.91 695.034 443.703 694.048 442.717C693.112 441.731 691.929 441.213 690.499 441.164H705.656C706.79 441.164 708.958 441.164 712.162 441.164C715.366 441.164 718.792 441.164 722.439 441.164C726.136 441.164 729.29 441.164 731.903 441.164C734.564 441.164 736.018 441.164 736.265 441.164ZM752.235 452.55C750.46 450.036 748.168 448.016 745.359 446.487C742.549 445.009 739.518 444.245 736.265 444.195C736.265 444.195 734.934 444.195 732.272 444.195C729.66 444.195 726.505 444.195 722.809 444.195C719.161 444.195 715.736 444.195 712.532 444.195C709.328 444.195 707.036 444.195 705.656 444.195V492.698C706.642 492.698 708.441 492.698 711.053 492.698C713.715 492.698 716.697 492.698 719.999 492.698C722.71 492.698 725.298 492.698 727.762 492.698C730.227 492.698 732.248 492.698 733.825 492.698C735.402 492.698 736.24 492.698 736.339 492.698C739.789 492.55 742.796 491.786 745.359 490.406C748.168 488.829 750.46 486.808 752.235 484.343C753.96 481.879 755.192 479.291 755.931 476.58C756.72 473.869 757.114 471.158 757.114 468.447C757.114 465.736 756.72 463.025 755.931 460.314C755.192 457.603 753.96 455.015 752.235 452.55Z"/>
<path d="M885.902 542.384C887.332 545.391 889.698 546.993 893 547.19H871.929C873.161 547.141 874.073 546.648 874.664 545.711C875.305 544.725 875.428 543.641 875.034 542.458L865.792 520.72L812.929 494.325L792.523 542.458C792.079 543.641 792.153 544.701 792.745 545.637C793.386 546.574 794.322 547.091 795.554 547.19H782.172C785.475 546.993 787.84 545.391 789.27 542.384L832.078 441.164H843.094L885.902 542.384ZM814.112 491.515L863.944 516.432L833.778 445.083L814.112 491.515Z"/>
<path d="M221.608 601.837L219.696 602.315C219.079 600.324 218.213 598.671 217.097 597.356C216.002 596.022 214.658 595.026 213.065 594.369C211.471 593.692 209.619 593.353 207.508 593.353C203.844 593.353 200.877 594.289 198.606 596.161C196.336 598.013 195.201 600.463 195.201 603.51C195.201 605.92 195.967 607.941 197.501 609.575C199.054 611.208 201.394 612.413 204.521 613.189L211.69 614.982C215.056 615.818 217.605 617.232 219.338 619.224C221.09 621.215 221.967 623.625 221.967 626.453C221.967 628.943 221.309 631.133 219.995 633.025C218.7 634.917 216.908 636.391 214.618 637.447C212.328 638.482 209.679 639 206.672 639C202.589 639 199.253 638.004 196.664 636.013C194.076 634.021 192.393 631.193 191.616 627.529L193.528 627.051C194.205 630.297 195.649 632.786 197.859 634.519C200.09 636.232 203.027 637.088 206.672 637.088C210.655 637.088 213.881 636.112 216.35 634.16C218.82 632.209 220.055 629.64 220.055 626.453C220.055 624.083 219.318 622.082 217.844 620.449C216.37 618.815 214.16 617.63 211.212 616.894L204.043 615.101C200.518 614.225 197.839 612.791 196.007 610.799C194.195 608.808 193.289 606.378 193.289 603.51C193.289 601.1 193.886 598.999 195.081 597.207C196.296 595.395 197.969 593.981 200.1 592.965C202.251 591.949 204.72 591.441 207.508 591.441C211.053 591.441 214.01 592.318 216.38 594.07C218.75 595.803 220.493 598.392 221.608 601.837Z"/>
<path d="M266.975 638.044V592.158H268.886V638.044H266.975ZM267.93 583.794C267.413 583.794 266.965 583.604 266.586 583.226C266.208 582.848 266.019 582.4 266.019 581.882C266.019 581.364 266.208 580.916 266.586 580.537C266.965 580.159 267.413 579.97 267.93 579.97C268.448 579.97 268.896 580.159 269.275 580.537C269.653 580.916 269.842 581.364 269.842 581.882C269.842 582.4 269.653 582.848 269.275 583.226C268.896 583.604 268.448 583.794 267.93 583.794Z"/>
<path d="M318.42 576.863V638.044H316.508V576.863H318.42Z"/>
<path d="M367.222 619.522V616.057H367.939L392.315 592.158H395.063L374.152 612.711L373.913 612.95L367.222 619.522ZM365.788 638.044V576.863H367.7V638.044H365.788ZM393.271 638.044L373.196 612.711L374.63 611.516L395.78 638.044H393.271Z"/>
<path d="M520.172 601.837L518.26 602.315C517.643 600.324 516.776 598.671 515.661 597.356C514.566 596.022 513.222 595.026 511.628 594.369C510.035 593.692 508.183 593.353 506.072 593.353C502.408 593.353 499.44 594.289 497.17 596.161C494.9 598.013 493.765 600.463 493.765 603.51C493.765 605.92 494.531 607.941 496.065 609.575C497.618 611.208 499.958 612.413 503.085 613.189L510.254 614.982C513.62 615.818 516.169 617.232 517.902 619.224C519.654 621.215 520.53 623.625 520.53 626.453C520.53 628.943 519.873 631.133 518.559 633.025C517.264 634.917 515.472 636.391 513.182 637.447C510.892 638.482 508.243 639 505.236 639C501.153 639 497.817 638.004 495.228 636.013C492.639 634.021 490.957 631.193 490.18 627.529L492.092 627.051C492.769 630.297 494.213 632.786 496.423 634.519C498.654 636.232 501.591 637.088 505.236 637.088C509.219 637.088 512.445 636.112 514.914 634.16C517.384 632.209 518.619 629.64 518.619 626.453C518.619 624.083 517.882 622.082 516.408 620.449C514.934 618.815 512.724 617.63 509.776 616.894L502.607 615.101C499.082 614.225 496.403 612.791 494.571 610.799C492.759 608.808 491.853 606.378 491.853 603.51C491.853 601.1 492.45 598.999 493.645 597.207C494.86 595.395 496.533 593.981 498.664 592.965C500.815 591.949 503.284 591.441 506.072 591.441C509.617 591.441 512.574 592.318 514.944 594.07C517.314 595.803 519.057 598.392 520.172 601.837Z"/>
<path d="M576.77 639C574.261 639 571.941 638.482 569.81 637.447C567.699 636.411 565.996 634.897 564.702 632.906C563.427 630.914 562.79 628.484 562.79 625.617C562.79 624.063 563.039 622.609 563.537 621.255C564.035 619.881 564.911 618.636 566.166 617.521C567.42 616.406 569.173 615.45 571.423 614.653C573.694 613.856 576.591 613.249 580.116 612.831C582.227 612.592 584.219 612.313 586.091 611.994C587.963 611.676 589.486 611.198 590.661 610.56C591.836 609.923 592.424 609.007 592.424 607.812V605.064C592.424 601.539 591.239 598.71 588.869 596.579C586.499 594.429 583.342 593.353 579.399 593.353C576.173 593.353 573.355 594.07 570.945 595.504C568.536 596.918 566.853 598.91 565.897 601.479L564.105 600.762C564.821 598.85 565.927 597.197 567.42 595.803C568.914 594.409 570.686 593.333 572.738 592.576C574.789 591.82 577.009 591.441 579.399 591.441C581.729 591.441 583.81 591.79 585.643 592.487C587.495 593.164 589.068 594.12 590.362 595.355C591.657 596.57 592.643 598.003 593.32 599.656C593.997 601.309 594.336 603.112 594.336 605.064V638.044H592.424V628.723H592.185C591.229 630.795 589.984 632.607 588.451 634.16C586.937 635.694 585.185 636.889 583.193 637.745C581.221 638.582 579.081 639 576.77 639ZM576.77 637.088C579.678 637.088 582.317 636.311 584.687 634.758C587.057 633.185 588.939 631.004 590.333 628.216C591.727 625.408 592.424 622.151 592.424 618.447V611.516C591.866 611.935 591.189 612.303 590.392 612.622C589.616 612.94 588.729 613.229 587.734 613.488C586.758 613.727 585.692 613.936 584.537 614.115C583.382 614.295 582.148 614.464 580.833 614.623C576.731 615.101 573.504 615.828 571.154 616.804C568.804 617.78 567.142 619.005 566.166 620.478C565.19 621.952 564.702 623.665 564.702 625.617C564.702 629.082 565.857 631.86 568.167 633.951C570.497 636.043 573.365 637.088 576.77 637.088Z"/>
<path d="M641.935 638.044V592.158H643.847V599.447H644.086C645.161 597.057 646.924 595.146 649.373 593.712C651.843 592.278 654.661 591.561 657.827 591.561C658.066 591.561 658.225 591.561 658.305 591.561C658.385 591.561 658.544 591.561 658.783 591.561V593.473C658.544 593.473 658.385 593.473 658.305 593.473C658.225 593.473 658.066 593.473 657.827 593.473C655.119 593.473 652.709 594.06 650.598 595.235C648.507 596.41 646.854 598.033 645.639 600.105C644.444 602.176 643.847 604.546 643.847 607.214V638.044H641.935Z"/>
<path d="M716.226 639C712.223 639 708.718 637.954 705.71 635.863C702.723 633.772 700.403 630.934 698.75 627.349C697.097 623.764 696.271 619.722 696.271 615.221C696.271 610.72 697.097 606.677 698.75 603.092C700.423 599.507 702.693 596.669 705.561 594.578C708.429 592.487 711.665 591.441 715.27 591.441C717.938 591.441 720.408 592.009 722.678 593.144C724.968 594.279 726.96 595.853 728.653 597.864C730.345 599.876 731.66 602.196 732.596 604.825C733.552 607.434 734.03 610.222 734.03 613.189V615.101H697.227V613.189H732.118C732.118 609.505 731.361 606.169 729.847 603.182C728.334 600.174 726.303 597.784 723.753 596.012C721.204 594.239 718.376 593.353 715.27 593.353C712.123 593.353 709.275 594.289 706.726 596.161C704.177 598.033 702.136 600.583 700.602 603.809C699.069 607.035 698.262 610.68 698.183 614.743V614.982C698.183 618.985 698.88 622.669 700.274 626.035C701.688 629.381 703.739 632.059 706.427 634.071C709.116 636.082 712.382 637.088 716.226 637.088C719.054 637.088 721.423 636.59 723.335 635.594C725.267 634.599 726.81 633.453 727.965 632.159C729.14 630.864 730.007 629.759 730.564 628.843L732.118 629.918C731.441 631.074 730.425 632.358 729.071 633.772C727.717 635.186 725.984 636.411 723.873 637.447C721.762 638.482 719.213 639 716.226 639Z"/>
<path d="M795.901 639C791.898 639 788.393 637.954 785.385 635.863C782.398 633.772 780.078 630.934 778.425 627.349C776.772 623.764 775.946 619.722 775.946 615.221C775.946 610.72 776.772 606.677 778.425 603.092C780.098 599.507 782.368 596.669 785.236 594.578C788.104 592.487 791.34 591.441 794.945 591.441C797.613 591.441 800.083 592.009 802.353 593.144C804.643 594.279 806.635 595.853 808.328 597.864C810.02 599.876 811.335 602.196 812.271 604.825C813.227 607.434 813.705 610.222 813.705 613.189V615.101H776.902V613.189H811.793C811.793 609.505 811.036 606.169 809.523 603.182C808.009 600.174 805.978 597.784 803.429 596.012C800.879 594.239 798.052 593.353 794.945 593.353C791.798 593.353 788.95 594.289 786.401 596.161C783.852 598.033 781.811 600.583 780.277 603.809C778.744 607.035 777.937 610.68 777.858 614.743V614.982C777.858 618.985 778.555 622.669 779.949 626.035C781.363 629.381 783.414 632.059 786.102 634.071C788.791 636.082 792.057 637.088 795.901 637.088C798.729 637.088 801.098 636.59 803.01 635.594C804.942 634.599 806.485 633.453 807.641 632.159C808.815 630.864 809.682 629.759 810.24 628.843L811.793 629.918C811.116 631.074 810.1 632.358 808.746 633.772C807.392 635.186 805.659 636.411 803.548 637.447C801.437 638.482 798.888 639 795.901 639Z"/>
<path d="M885.852 601.837L883.94 602.315C883.323 600.324 882.456 598.671 881.341 597.356C880.246 596.022 878.902 595.026 877.308 594.369C875.715 593.692 873.863 593.353 871.752 593.353C868.088 593.353 865.12 594.289 862.85 596.161C860.58 598.013 859.445 600.463 859.445 603.51C859.445 605.92 860.211 607.941 861.745 609.575C863.298 611.208 865.638 612.413 868.765 613.189L875.934 614.982C879.3 615.818 881.849 617.232 883.582 619.224C885.334 621.215 886.21 623.625 886.21 626.453C886.21 628.943 885.553 631.133 884.239 633.025C882.944 634.917 881.152 636.391 878.862 637.447C876.571 638.482 873.923 639 870.916 639C866.833 639 863.497 638.004 860.908 636.013C858.319 634.021 856.637 631.193 855.86 627.529L857.772 627.051C858.449 630.297 859.893 632.786 862.103 634.519C864.334 636.232 867.271 637.088 870.916 637.088C874.899 637.088 878.125 636.112 880.594 634.16C883.064 632.209 884.299 629.64 884.299 626.453C884.299 624.083 883.562 622.082 882.088 620.449C880.614 618.815 878.404 617.63 875.456 616.894L868.287 615.101C864.762 614.225 862.083 612.791 860.251 610.799C858.439 608.808 857.533 606.378 857.533 603.51C857.533 601.1 858.13 598.999 859.325 597.207C860.54 595.395 862.213 593.981 864.344 592.965C866.494 591.949 868.964 591.441 871.752 591.441C875.297 591.441 878.254 592.318 880.624 594.07C882.994 595.803 884.737 598.392 885.852 601.837Z"/>
<path d="M265.074 479.697C265.074 485.272 260.554 489.792 254.979 489.792C249.404 489.792 244.885 485.272 244.885 479.697C244.885 474.122 249.404 469.602 254.979 469.602C260.554 469.602 265.074 474.122 265.074 479.697Z"/>
</mask>
<path d="M208.772 494.621C202.709 492.698 197.534 489.667 193.246 485.526C188.957 481.386 186.838 475.939 186.887 469.186C187.479 460.363 191.348 453.339 198.495 448.114C209.141 441.903 220.651 439.759 233.022 441.682C237.705 442.273 242.239 443.629 246.626 445.748C251.013 447.868 254.463 450.998 256.977 455.138C258.752 458.243 259.737 461.571 259.934 465.12L251.062 465.194C251.062 465.194 250.964 464.873 250.767 464.232C250.619 463.592 250.422 462.877 250.175 462.088C249.929 461.25 249.707 460.511 249.51 459.87C249.313 459.229 249.214 458.86 249.214 458.761C247.982 455.113 245.788 452.131 242.634 449.815C239.479 447.498 236.078 445.921 232.431 445.083C227.206 443.9 221.883 443.974 216.461 445.304C211.088 446.635 206.504 449.272 202.709 453.216C198.717 457.8 196.794 463.173 196.942 469.334C197.238 473.672 198.84 476.925 201.748 479.094C204.705 481.213 208.18 482.791 212.173 483.826C216.067 485.009 220.01 486.019 224.002 486.857C231.396 488.336 238.518 490.579 245.369 493.585C248.327 494.966 251.112 496.814 253.724 499.131C256.386 501.447 258.505 504.257 260.082 507.56C262.153 512.341 262.99 517.344 262.596 522.569C261.561 530.406 257.692 536.124 250.988 539.722C244.285 543.271 237.409 545.465 230.361 546.303C223.066 547.535 215.327 547.436 207.145 546.007C199.012 544.577 192.876 540.412 188.736 533.511C187.06 530.308 186.148 526.956 186 523.456H196.129C196.129 523.801 196.129 524.121 196.129 524.417C196.08 526.29 196.277 528.139 196.72 529.962C198.939 536.37 203.522 540.486 210.472 542.31C217.422 544.134 223.879 544.405 229.843 543.123C235.216 542.039 240.219 539.698 244.852 536.099C249.485 532.452 252.073 527.72 252.615 521.903C252.418 513.376 248.401 507.338 240.564 503.789C234.452 501.275 228.118 499.353 221.562 498.022C217.225 497.085 212.961 495.951 208.772 494.621Z" fill="black"/>
<path d="M366.468 542.384C367.898 545.391 370.263 546.993 373.566 547.19H352.495C353.727 547.141 354.639 546.648 355.23 545.711C355.871 544.725 355.994 543.641 355.6 542.458L346.358 520.72L293.495 494.325L273.089 542.458C272.645 543.641 272.719 544.701 273.311 545.637C273.951 546.574 274.888 547.091 276.12 547.19H262.738C266.04 546.993 268.406 545.391 269.836 542.384L312.644 441.164H323.66L366.468 542.384ZM294.678 491.515L344.51 516.432L314.344 445.083L294.678 491.515Z" fill="black"/>
<path d="M388.125 446.34C388.125 444.91 387.632 443.703 386.646 442.717C385.71 441.731 384.527 441.213 383.098 441.164H403.282C401.852 441.213 400.645 441.731 399.659 442.717C398.722 443.703 398.254 444.91 398.254 446.34V502.411H458.363V446.34C458.363 444.91 457.87 443.703 456.884 442.717C455.948 441.731 454.765 441.213 453.335 441.164H473.519C472.09 441.213 470.882 441.731 469.897 442.717C468.96 443.703 468.492 444.91 468.492 446.34V542.088C468.492 543.468 468.96 544.651 469.897 545.637C470.882 546.623 472.09 547.141 473.519 547.19H453.335C454.765 547.141 455.948 546.623 456.884 545.637C457.87 544.651 458.363 543.468 458.363 542.088V505.775H398.254V542.088C398.254 543.468 398.722 544.651 399.659 545.637C400.645 546.623 401.852 547.141 403.282 547.19H383.098C384.527 547.141 385.71 546.623 386.646 545.637C387.632 544.651 388.125 543.468 388.125 542.088V446.34Z" fill="black"/>
<path d="M587.225 542.384C588.654 545.391 591.02 546.993 594.322 547.19H573.251C574.483 547.141 575.395 546.648 575.987 545.711C576.627 544.725 576.751 543.641 576.356 542.458L567.115 520.72L514.251 494.325L493.845 542.458C493.402 543.641 493.476 544.701 494.067 545.637C494.708 546.574 495.645 547.091 496.877 547.19H483.495C486.797 546.993 489.163 545.391 490.592 542.384L533.4 441.164H544.417L587.225 542.384ZM515.434 491.515L565.266 516.432L535.101 445.083L515.434 491.515Z" fill="black"/>
<path d="M623.668 494.621C617.606 492.698 612.43 489.667 608.142 485.526C603.854 481.386 601.735 475.939 601.784 469.186C602.375 460.363 606.245 453.339 613.392 448.114C624.038 441.903 635.547 439.759 647.919 441.682C652.601 442.273 657.136 443.629 661.523 445.748C665.91 447.868 669.36 450.998 671.874 455.138C673.648 458.243 674.634 461.571 674.831 465.12L665.959 465.194C665.959 465.194 665.86 464.873 665.663 464.232C665.515 463.592 665.318 462.877 665.072 462.088C664.825 461.25 664.604 460.511 664.406 459.87C664.209 459.229 664.111 458.86 664.111 458.761C662.878 455.113 660.685 452.131 657.53 449.815C654.376 447.498 650.975 445.921 647.328 445.083C642.103 443.9 636.78 443.974 631.358 445.304C625.985 446.635 621.401 449.272 617.606 453.216C613.613 457.8 611.691 463.173 611.839 469.334C612.135 473.672 613.737 476.925 616.645 479.094C619.602 481.213 623.077 482.791 627.069 483.826C630.963 485.009 634.907 486.019 638.899 486.857C646.292 488.336 653.415 490.579 660.266 493.585C663.223 494.966 666.008 496.814 668.621 499.131C671.282 501.447 673.402 504.257 674.979 507.56C677.049 512.341 677.887 517.344 677.493 522.569C676.458 530.406 672.588 536.124 665.885 539.722C659.182 543.271 652.306 545.465 645.257 546.303C637.962 547.535 630.224 547.436 622.042 546.007C613.909 544.577 607.773 540.412 603.632 533.511C601.956 530.308 601.045 526.956 600.897 523.456H611.026C611.026 523.801 611.026 524.121 611.026 524.417C610.976 526.29 611.174 528.139 611.617 529.962C613.835 536.37 618.419 540.486 625.369 542.31C632.319 544.134 638.776 544.405 644.74 543.123C650.112 542.039 655.115 539.698 659.749 536.099C664.382 532.452 666.969 527.72 667.512 521.903C667.314 513.376 663.297 507.338 655.46 503.789C649.348 501.275 643.015 499.353 636.459 498.022C632.122 497.085 627.858 495.951 623.668 494.621Z" fill="black"/>
<path d="M736.265 441.164C739.863 441.164 743.412 441.706 746.911 442.791C750.411 443.875 753.713 445.576 756.819 447.892C759.973 450.209 762.487 453.166 764.36 456.765C766.233 460.412 767.194 464.306 767.243 468.447C767.194 472.587 766.233 476.457 764.36 480.055C762.487 483.653 759.973 486.635 756.819 489.001C753.861 491.219 750.682 492.871 747.281 493.955C747.232 494.004 746.591 494.177 745.359 494.473C744.126 494.719 742.648 494.99 740.923 495.286C739.198 495.582 737.67 495.73 736.339 495.73C736.24 495.73 735.18 495.73 733.16 495.73C736.166 497.405 738.729 499.426 740.849 501.792C745.433 506.869 748.908 512.439 751.273 518.502C752.161 520.523 752.974 522.569 753.713 524.639C754.995 528.237 756.498 531.762 758.223 535.212C759.357 537.381 760.885 539.377 762.807 541.201C764.73 543.025 767.12 544.134 769.979 544.528L771.384 544.602C771.778 544.602 772.074 544.725 772.271 544.972C772.517 545.218 772.641 545.514 772.641 545.859C772.641 546.253 772.517 546.574 772.271 546.82C772.024 547.067 771.729 547.19 771.384 547.19C770.792 547.19 770.225 547.165 769.683 547.116C762.585 546.377 756.819 543.468 752.383 538.391C747.749 533.019 744.25 527.424 741.884 521.608C740.75 519.044 739.715 516.457 738.779 513.844C737.694 510.788 736.462 507.781 735.082 504.824C733.899 502.113 732.174 499.796 729.906 497.874C728.28 496.691 726.53 495.976 724.657 495.73C721.946 495.73 719.186 495.73 716.376 495.73C711.497 495.73 707.923 495.73 705.656 495.73V542.088C705.656 543.468 706.124 544.651 707.061 545.637C708.046 546.623 709.254 547.141 710.683 547.19H690.499C691.879 547.141 693.038 546.648 693.974 545.711C694.911 544.775 695.428 543.616 695.527 542.236V446.34C695.527 444.91 695.034 443.703 694.048 442.717C693.112 441.731 691.929 441.213 690.499 441.164H705.656C706.79 441.164 708.958 441.164 712.162 441.164C715.366 441.164 718.792 441.164 722.439 441.164C726.136 441.164 729.29 441.164 731.903 441.164C734.564 441.164 736.018 441.164 736.265 441.164ZM752.235 452.55C750.46 450.036 748.168 448.016 745.359 446.487C742.549 445.009 739.518 444.245 736.265 444.195C736.265 444.195 734.934 444.195 732.272 444.195C729.66 444.195 726.505 444.195 722.809 444.195C719.161 444.195 715.736 444.195 712.532 444.195C709.328 444.195 707.036 444.195 705.656 444.195V492.698C706.642 492.698 708.441 492.698 711.053 492.698C713.715 492.698 716.697 492.698 719.999 492.698C722.71 492.698 725.298 492.698 727.762 492.698C730.227 492.698 732.248 492.698 733.825 492.698C735.402 492.698 736.24 492.698 736.339 492.698C739.789 492.55 742.796 491.786 745.359 490.406C748.168 488.829 750.46 486.808 752.235 484.343C753.96 481.879 755.192 479.291 755.931 476.58C756.72 473.869 757.114 471.158 757.114 468.447C757.114 465.736 756.72 463.025 755.931 460.314C755.192 457.603 753.96 455.015 752.235 452.55Z" fill="black"/>
<path d="M885.902 542.384C887.332 545.391 889.698 546.993 893 547.19H871.929C873.161 547.141 874.073 546.648 874.664 545.711C875.305 544.725 875.428 543.641 875.034 542.458L865.792 520.72L812.929 494.325L792.523 542.458C792.079 543.641 792.153 544.701 792.745 545.637C793.386 546.574 794.322 547.091 795.554 547.19H782.172C785.475 546.993 787.84 545.391 789.27 542.384L832.078 441.164H843.094L885.902 542.384ZM814.112 491.515L863.944 516.432L833.778 445.083L814.112 491.515Z" fill="black"/>
<path d="M221.608 601.837L219.696 602.315C219.079 600.324 218.213 598.671 217.097 597.356C216.002 596.022 214.658 595.026 213.065 594.369C211.471 593.692 209.619 593.353 207.508 593.353C203.844 593.353 200.877 594.289 198.606 596.161C196.336 598.013 195.201 600.463 195.201 603.51C195.201 605.92 195.967 607.941 197.501 609.575C199.054 611.208 201.394 612.413 204.521 613.189L211.69 614.982C215.056 615.818 217.605 617.232 219.338 619.224C221.09 621.215 221.967 623.625 221.967 626.453C221.967 628.943 221.309 631.133 219.995 633.025C218.7 634.917 216.908 636.391 214.618 637.447C212.328 638.482 209.679 639 206.672 639C202.589 639 199.253 638.004 196.664 636.013C194.076 634.021 192.393 631.193 191.616 627.529L193.528 627.051C194.205 630.297 195.649 632.786 197.859 634.519C200.09 636.232 203.027 637.088 206.672 637.088C210.655 637.088 213.881 636.112 216.35 634.16C218.82 632.209 220.055 629.64 220.055 626.453C220.055 624.083 219.318 622.082 217.844 620.449C216.37 618.815 214.16 617.63 211.212 616.894L204.043 615.101C200.518 614.225 197.839 612.791 196.007 610.799C194.195 608.808 193.289 606.378 193.289 603.51C193.289 601.1 193.886 598.999 195.081 597.207C196.296 595.395 197.969 593.981 200.1 592.965C202.251 591.949 204.72 591.441 207.508 591.441C211.053 591.441 214.01 592.318 216.38 594.07C218.75 595.803 220.493 598.392 221.608 601.837Z" fill="black"/>
<path d="M266.975 638.044V592.158H268.886V638.044H266.975ZM267.93 583.794C267.413 583.794 266.965 583.604 266.586 583.226C266.208 582.848 266.019 582.4 266.019 581.882C266.019 581.364 266.208 580.916 266.586 580.537C266.965 580.159 267.413 579.97 267.93 579.97C268.448 579.97 268.896 580.159 269.275 580.537C269.653 580.916 269.842 581.364 269.842 581.882C269.842 582.4 269.653 582.848 269.275 583.226C268.896 583.604 268.448 583.794 267.93 583.794Z" fill="black"/>
<path d="M318.42 576.863V638.044H316.508V576.863H318.42Z" fill="black"/>
<path d="M367.222 619.522V616.057H367.939L392.315 592.158H395.063L374.152 612.711L373.913 612.95L367.222 619.522ZM365.788 638.044V576.863H367.7V638.044H365.788ZM393.271 638.044L373.196 612.711L374.63 611.516L395.78 638.044H393.271Z" fill="black"/>
<path d="M520.172 601.837L518.26 602.315C517.643 600.324 516.776 598.671 515.661 597.356C514.566 596.022 513.222 595.026 511.628 594.369C510.035 593.692 508.183 593.353 506.072 593.353C502.408 593.353 499.44 594.289 497.17 596.161C494.9 598.013 493.765 600.463 493.765 603.51C493.765 605.92 494.531 607.941 496.065 609.575C497.618 611.208 499.958 612.413 503.085 613.189L510.254 614.982C513.62 615.818 516.169 617.232 517.902 619.224C519.654 621.215 520.53 623.625 520.53 626.453C520.53 628.943 519.873 631.133 518.559 633.025C517.264 634.917 515.472 636.391 513.182 637.447C510.892 638.482 508.243 639 505.236 639C501.153 639 497.817 638.004 495.228 636.013C492.639 634.021 490.957 631.193 490.18 627.529L492.092 627.051C492.769 630.297 494.213 632.786 496.423 634.519C498.654 636.232 501.591 637.088 505.236 637.088C509.219 637.088 512.445 636.112 514.914 634.16C517.384 632.209 518.619 629.64 518.619 626.453C518.619 624.083 517.882 622.082 516.408 620.449C514.934 618.815 512.724 617.63 509.776 616.894L502.607 615.101C499.082 614.225 496.403 612.791 494.571 610.799C492.759 608.808 491.853 606.378 491.853 603.51C491.853 601.1 492.45 598.999 493.645 597.207C494.86 595.395 496.533 593.981 498.664 592.965C500.815 591.949 503.284 591.441 506.072 591.441C509.617 591.441 512.574 592.318 514.944 594.07C517.314 595.803 519.057 598.392 520.172 601.837Z" fill="black"/>
<path d="M576.77 639C574.261 639 571.941 638.482 569.81 637.447C567.699 636.411 565.996 634.897 564.702 632.906C563.427 630.914 562.79 628.484 562.79 625.617C562.79 624.063 563.039 622.609 563.537 621.255C564.035 619.881 564.911 618.636 566.166 617.521C567.42 616.406 569.173 615.45 571.423 614.653C573.694 613.856 576.591 613.249 580.116 612.831C582.227 612.592 584.219 612.313 586.091 611.994C587.963 611.676 589.486 611.198 590.661 610.56C591.836 609.923 592.424 609.007 592.424 607.812V605.064C592.424 601.539 591.239 598.71 588.869 596.579C586.499 594.429 583.342 593.353 579.399 593.353C576.173 593.353 573.355 594.07 570.945 595.504C568.536 596.918 566.853 598.91 565.897 601.479L564.105 600.762C564.821 598.85 565.927 597.197 567.42 595.803C568.914 594.409 570.686 593.333 572.738 592.576C574.789 591.82 577.009 591.441 579.399 591.441C581.729 591.441 583.81 591.79 585.643 592.487C587.495 593.164 589.068 594.12 590.362 595.355C591.657 596.57 592.643 598.003 593.32 599.656C593.997 601.309 594.336 603.112 594.336 605.064V638.044H592.424V628.723H592.185C591.229 630.795 589.984 632.607 588.451 634.16C586.937 635.694 585.185 636.889 583.193 637.745C581.221 638.582 579.081 639 576.77 639ZM576.77 637.088C579.678 637.088 582.317 636.311 584.687 634.758C587.057 633.185 588.939 631.004 590.333 628.216C591.727 625.408 592.424 622.151 592.424 618.447V611.516C591.866 611.935 591.189 612.303 590.392 612.622C589.616 612.94 588.729 613.229 587.734 613.488C586.758 613.727 585.692 613.936 584.537 614.115C583.382 614.295 582.148 614.464 580.833 614.623C576.731 615.101 573.504 615.828 571.154 616.804C568.804 617.78 567.142 619.005 566.166 620.478C565.19 621.952 564.702 623.665 564.702 625.617C564.702 629.082 565.857 631.86 568.167 633.951C570.497 636.043 573.365 637.088 576.77 637.088Z" fill="black"/>
<path d="M641.935 638.044V592.158H643.847V599.447H644.086C645.161 597.057 646.924 595.146 649.373 593.712C651.843 592.278 654.661 591.561 657.827 591.561C658.066 591.561 658.225 591.561 658.305 591.561C658.385 591.561 658.544 591.561 658.783 591.561V593.473C658.544 593.473 658.385 593.473 658.305 593.473C658.225 593.473 658.066 593.473 657.827 593.473C655.119 593.473 652.709 594.06 650.598 595.235C648.507 596.41 646.854 598.033 645.639 600.105C644.444 602.176 643.847 604.546 643.847 607.214V638.044H641.935Z" fill="black"/>
<path d="M716.226 639C712.223 639 708.718 637.954 705.71 635.863C702.723 633.772 700.403 630.934 698.75 627.349C697.097 623.764 696.271 619.722 696.271 615.221C696.271 610.72 697.097 606.677 698.75 603.092C700.423 599.507 702.693 596.669 705.561 594.578C708.429 592.487 711.665 591.441 715.27 591.441C717.938 591.441 720.408 592.009 722.678 593.144C724.968 594.279 726.96 595.853 728.653 597.864C730.345 599.876 731.66 602.196 732.596 604.825C733.552 607.434 734.03 610.222 734.03 613.189V615.101H697.227V613.189H732.118C732.118 609.505 731.361 606.169 729.847 603.182C728.334 600.174 726.303 597.784 723.753 596.012C721.204 594.239 718.376 593.353 715.27 593.353C712.123 593.353 709.275 594.289 706.726 596.161C704.177 598.033 702.136 600.583 700.602 603.809C699.069 607.035 698.262 610.68 698.183 614.743V614.982C698.183 618.985 698.88 622.669 700.274 626.035C701.688 629.381 703.739 632.059 706.427 634.071C709.116 636.082 712.382 637.088 716.226 637.088C719.054 637.088 721.423 636.59 723.335 635.594C725.267 634.599 726.81 633.453 727.965 632.159C729.14 630.864 730.007 629.759 730.564 628.843L732.118 629.918C731.441 631.074 730.425 632.358 729.071 633.772C727.717 635.186 725.984 636.411 723.873 637.447C721.762 638.482 719.213 639 716.226 639Z" fill="black"/>
<path d="M795.901 639C791.898 639 788.393 637.954 785.385 635.863C782.398 633.772 780.078 630.934 778.425 627.349C776.772 623.764 775.946 619.722 775.946 615.221C775.946 610.72 776.772 606.677 778.425 603.092C780.098 599.507 782.368 596.669 785.236 594.578C788.104 592.487 791.34 591.441 794.945 591.441C797.613 591.441 800.083 592.009 802.353 593.144C804.643 594.279 806.635 595.853 808.328 597.864C810.02 599.876 811.335 602.196 812.271 604.825C813.227 607.434 813.705 610.222 813.705 613.189V615.101H776.902V613.189H811.793C811.793 609.505 811.036 606.169 809.523 603.182C808.009 600.174 805.978 597.784 803.429 596.012C800.879 594.239 798.052 593.353 794.945 593.353C791.798 593.353 788.95 594.289 786.401 596.161C783.852 598.033 781.811 600.583 780.277 603.809C778.744 607.035 777.937 610.68 777.858 614.743V614.982C777.858 618.985 778.555 622.669 779.949 626.035C781.363 629.381 783.414 632.059 786.102 634.071C788.791 636.082 792.057 637.088 795.901 637.088C798.729 637.088 801.098 636.59 803.01 635.594C804.942 634.599 806.485 633.453 807.641 632.159C808.815 630.864 809.682 629.759 810.24 628.843L811.793 629.918C811.116 631.074 810.1 632.358 808.746 633.772C807.392 635.186 805.659 636.411 803.548 637.447C801.437 638.482 798.888 639 795.901 639Z" fill="black"/>
<path d="M885.852 601.837L883.94 602.315C883.323 600.324 882.456 598.671 881.341 597.356C880.246 596.022 878.902 595.026 877.308 594.369C875.715 593.692 873.863 593.353 871.752 593.353C868.088 593.353 865.12 594.289 862.85 596.161C860.58 598.013 859.445 600.463 859.445 603.51C859.445 605.92 860.211 607.941 861.745 609.575C863.298 611.208 865.638 612.413 868.765 613.189L875.934 614.982C879.3 615.818 881.849 617.232 883.582 619.224C885.334 621.215 886.21 623.625 886.21 626.453C886.21 628.943 885.553 631.133 884.239 633.025C882.944 634.917 881.152 636.391 878.862 637.447C876.571 638.482 873.923 639 870.916 639C866.833 639 863.497 638.004 860.908 636.013C858.319 634.021 856.637 631.193 855.86 627.529L857.772 627.051C858.449 630.297 859.893 632.786 862.103 634.519C864.334 636.232 867.271 637.088 870.916 637.088C874.899 637.088 878.125 636.112 880.594 634.16C883.064 632.209 884.299 629.64 884.299 626.453C884.299 624.083 883.562 622.082 882.088 620.449C880.614 618.815 878.404 617.63 875.456 616.894L868.287 615.101C864.762 614.225 862.083 612.791 860.251 610.799C858.439 608.808 857.533 606.378 857.533 603.51C857.533 601.1 858.13 598.999 859.325 597.207C860.54 595.395 862.213 593.981 864.344 592.965C866.494 591.949 868.964 591.441 871.752 591.441C875.297 591.441 878.254 592.318 880.624 594.07C882.994 595.803 884.737 598.392 885.852 601.837Z" fill="black"/>
<path d="M265.074 479.697C265.074 485.272 260.554 489.792 254.979 489.792C249.404 489.792 244.885 485.272 244.885 479.697C244.885 474.122 249.404 469.602 254.979 469.602C260.554 469.602 265.074 474.122 265.074 479.697Z" fill="black"/>
<path d="M208.772 494.621C202.709 492.698 197.534 489.667 193.246 485.526C188.957 481.386 186.838 475.939 186.887 469.186C187.479 460.363 191.348 453.339 198.495 448.114C209.141 441.903 220.651 439.759 233.022 441.682C237.705 442.273 242.239 443.629 246.626 445.748C251.013 447.868 254.463 450.998 256.977 455.138C258.752 458.243 259.737 461.571 259.934 465.12L251.062 465.194C251.062 465.194 250.964 464.873 250.767 464.232C250.619 463.592 250.422 462.877 250.175 462.088C249.929 461.25 249.707 460.511 249.51 459.87C249.313 459.229 249.214 458.86 249.214 458.761C247.982 455.113 245.788 452.131 242.634 449.815C239.479 447.498 236.078 445.921 232.431 445.083C227.206 443.9 221.883 443.974 216.461 445.304C211.088 446.635 206.504 449.272 202.709 453.216C198.717 457.8 196.794 463.173 196.942 469.334C197.238 473.672 198.84 476.925 201.748 479.094C204.705 481.213 208.18 482.791 212.173 483.826C216.067 485.009 220.01 486.019 224.002 486.857C231.396 488.336 238.518 490.579 245.369 493.585C248.327 494.966 251.112 496.814 253.724 499.131C256.386 501.447 258.505 504.257 260.082 507.56C262.153 512.341 262.99 517.344 262.596 522.569C261.561 530.406 257.692 536.124 250.988 539.722C244.285 543.271 237.409 545.465 230.361 546.303C223.066 547.535 215.327 547.436 207.145 546.007C199.012 544.577 192.876 540.412 188.736 533.511C187.06 530.308 186.148 526.956 186 523.456H196.129C196.129 523.801 196.129 524.121 196.129 524.417C196.08 526.29 196.277 528.139 196.72 529.962C198.939 536.37 203.522 540.486 210.472 542.31C217.422 544.134 223.879 544.405 229.843 543.123C235.216 542.039 240.219 539.698 244.852 536.099C249.485 532.452 252.073 527.72 252.615 521.903C252.418 513.376 248.401 507.338 240.564 503.789C234.452 501.275 228.118 499.353 221.562 498.022C217.225 497.085 212.961 495.951 208.772 494.621Z" stroke="black" stroke-width="1.2" mask="url(#path-1-outside-1_72_46)"/>
<path d="M366.468 542.384C367.898 545.391 370.263 546.993 373.566 547.19H352.495C353.727 547.141 354.639 546.648 355.23 545.711C355.871 544.725 355.994 543.641 355.6 542.458L346.358 520.72L293.495 494.325L273.089 542.458C272.645 543.641 272.719 544.701 273.311 545.637C273.951 546.574 274.888 547.091 276.12 547.19H262.738C266.04 546.993 268.406 545.391 269.836 542.384L312.644 441.164H323.66L366.468 542.384ZM294.678 491.515L344.51 516.432L314.344 445.083L294.678 491.515Z" stroke="black" stroke-width="1.2" mask="url(#path-1-outside-1_72_46)"/>
<path d="M388.125 446.34C388.125 444.91 387.632 443.703 386.646 442.717C385.71 441.731 384.527 441.213 383.098 441.164H403.282C401.852 441.213 400.645 441.731 399.659 442.717C398.722 443.703 398.254 444.91 398.254 446.34V502.411H458.363V446.34C458.363 444.91 457.87 443.703 456.884 442.717C455.948 441.731 454.765 441.213 453.335 441.164H473.519C472.09 441.213 470.882 441.731 469.897 442.717C468.96 443.703 468.492 444.91 468.492 446.34V542.088C468.492 543.468 468.96 544.651 469.897 545.637C470.882 546.623 472.09 547.141 473.519 547.19H453.335C454.765 547.141 455.948 546.623 456.884 545.637C457.87 544.651 458.363 543.468 458.363 542.088V505.775H398.254V542.088C398.254 543.468 398.722 544.651 399.659 545.637C400.645 546.623 401.852 547.141 403.282 547.19H383.098C384.527 547.141 385.71 546.623 386.646 545.637C387.632 544.651 388.125 543.468 388.125 542.088V446.34Z" stroke="black" stroke-width="1.2" mask="url(#path-1-outside-1_72_46)"/>
<path d="M587.225 542.384C588.654 545.391 591.02 546.993 594.322 547.19H573.251C574.483 547.141 575.395 546.648 575.987 545.711C576.627 544.725 576.751 543.641 576.356 542.458L567.115 520.72L514.251 494.325L493.845 542.458C493.402 543.641 493.476 544.701 494.067 545.637C494.708 546.574 495.645 547.091 496.877 547.19H483.495C486.797 546.993 489.163 545.391 490.592 542.384L533.4 441.164H544.417L587.225 542.384ZM515.434 491.515L565.266 516.432L535.101 445.083L515.434 491.515Z" stroke="black" stroke-width="1.2" mask="url(#path-1-outside-1_72_46)"/>
<path d="M623.668 494.621C617.606 492.698 612.43 489.667 608.142 485.526C603.854 481.386 601.735 475.939 601.784 469.186C602.375 460.363 606.245 453.339 613.392 448.114C624.038 441.903 635.547 439.759 647.919 441.682C652.601 442.273 657.136 443.629 661.523 445.748C665.91 447.868 669.36 450.998 671.874 455.138C673.648 458.243 674.634 461.571 674.831 465.12L665.959 465.194C665.959 465.194 665.86 464.873 665.663 464.232C665.515 463.592 665.318 462.877 665.072 462.088C664.825 461.25 664.604 460.511 664.406 459.87C664.209 459.229 664.111 458.86 664.111 458.761C662.878 455.113 660.685 452.131 657.53 449.815C654.376 447.498 650.975 445.921 647.328 445.083C642.103 443.9 636.78 443.974 631.358 445.304C625.985 446.635 621.401 449.272 617.606 453.216C613.613 457.8 611.691 463.173 611.839 469.334C612.135 473.672 613.737 476.925 616.645 479.094C619.602 481.213 623.077 482.791 627.069 483.826C630.963 485.009 634.907 486.019 638.899 486.857C646.292 488.336 653.415 490.579 660.266 493.585C663.223 494.966 666.008 496.814 668.621 499.131C671.282 501.447 673.402 504.257 674.979 507.56C677.049 512.341 677.887 517.344 677.493 522.569C676.458 530.406 672.588 536.124 665.885 539.722C659.182 543.271 652.306 545.465 645.257 546.303C637.962 547.535 630.224 547.436 622.042 546.007C613.909 544.577 607.773 540.412 603.632 533.511C601.956 530.308 601.045 526.956 600.897 523.456H611.026C611.026 523.801 611.026 524.121 611.026 524.417C610.976 526.29 611.174 528.139 611.617 529.962C613.835 536.37 618.419 540.486 625.369 542.31C632.319 544.134 638.776 544.405 644.74 543.123C650.112 542.039 655.115 539.698 659.749 536.099C664.382 532.452 666.969 527.72 667.512 521.903C667.314 513.376 663.297 507.338 655.46 503.789C649.348 501.275 643.015 499.353 636.459 498.022C632.122 497.085 627.858 495.951 623.668 494.621Z" stroke="black" stroke-width="1.2" mask="url(#path-1-outside-1_72_46)"/>
<path d="M736.265 441.164C739.863 441.164 743.412 441.706 746.911 442.791C750.411 443.875 753.713 445.576 756.819 447.892C759.973 450.209 762.487 453.166 764.36 456.765C766.233 460.412 767.194 464.306 767.243 468.447C767.194 472.587 766.233 476.457 764.36 480.055C762.487 483.653 759.973 486.635 756.819 489.001C753.861 491.219 750.682 492.871 747.281 493.955C747.232 494.004 746.591 494.177 745.359 494.473C744.126 494.719 742.648 494.99 740.923 495.286C739.198 495.582 737.67 495.73 736.339 495.73C736.24 495.73 735.18 495.73 733.16 495.73C736.166 497.405 738.729 499.426 740.849 501.792C745.433 506.869 748.908 512.439 751.273 518.502C752.161 520.523 752.974 522.569 753.713 524.639C754.995 528.237 756.498 531.762 758.223 535.212C759.357 537.381 760.885 539.377 762.807 541.201C764.73 543.025 767.12 544.134 769.979 544.528L771.384 544.602C771.778 544.602 772.074 544.725 772.271 544.972C772.517 545.218 772.641 545.514 772.641 545.859C772.641 546.253 772.517 546.574 772.271 546.82C772.024 547.067 771.729 547.19 771.384 547.19C770.792 547.19 770.225 547.165 769.683 547.116C762.585 546.377 756.819 543.468 752.383 538.391C747.749 533.019 744.25 527.424 741.884 521.608C740.75 519.044 739.715 516.457 738.779 513.844C737.694 510.788 736.462 507.781 735.082 504.824C733.899 502.113 732.174 499.796 729.906 497.874C728.28 496.691 726.53 495.976 724.657 495.73C721.946 495.73 719.186 495.73 716.376 495.73C711.497 495.73 707.923 495.73 705.656 495.73V542.088C705.656 543.468 706.124 544.651 707.061 545.637C708.046 546.623 709.254 547.141 710.683 547.19H690.499C691.879 547.141 693.038 546.648 693.974 545.711C694.911 544.775 695.428 543.616 695.527 542.236V446.34C695.527 444.91 695.034 443.703 694.048 442.717C693.112 441.731 691.929 441.213 690.499 441.164H705.656C706.79 441.164 708.958 441.164 712.162 441.164C715.366 441.164 718.792 441.164 722.439 441.164C726.136 441.164 729.29 441.164 731.903 441.164C734.564 441.164 736.018 441.164 736.265 441.164ZM752.235 452.55C750.46 450.036 748.168 448.016 745.359 446.487C742.549 445.009 739.518 444.245 736.265 444.195C736.265 444.195 734.934 444.195 732.272 444.195C729.66 444.195 726.505 444.195 722.809 444.195C719.161 444.195 715.736 444.195 712.532 444.195C709.328 444.195 707.036 444.195 705.656 444.195V492.698C706.642 492.698 708.441 492.698 711.053 492.698C713.715 492.698 716.697 492.698 719.999 492.698C722.71 492.698 725.298 492.698 727.762 492.698C730.227 492.698 732.248 492.698 733.825 492.698C735.402 492.698 736.24 492.698 736.339 492.698C739.789 492.55 742.796 491.786 745.359 490.406C748.168 488.829 750.46 486.808 752.235 484.343C753.96 481.879 755.192 479.291 755.931 476.58C756.72 473.869 757.114 471.158 757.114 468.447C757.114 465.736 756.72 463.025 755.931 460.314C755.192 457.603 753.96 455.015 752.235 452.55Z" stroke="black" stroke-width="1.2" mask="url(#path-1-outside-1_72_46)"/>
<path d="M885.902 542.384C887.332 545.391 889.698 546.993 893 547.19H871.929C873.161 547.141 874.073 546.648 874.664 545.711C875.305 544.725 875.428 543.641 875.034 542.458L865.792 520.72L812.929 494.325L792.523 542.458C792.079 543.641 792.153 544.701 792.745 545.637C793.386 546.574 794.322 547.091 795.554 547.19H782.172C785.475 546.993 787.84 545.391 789.27 542.384L832.078 441.164H843.094L885.902 542.384ZM814.112 491.515L863.944 516.432L833.778 445.083L814.112 491.515Z" stroke="black" stroke-width="1.2" mask="url(#path-1-outside-1_72_46)"/>
<path d="M221.608 601.837L219.696 602.315C219.079 600.324 218.213 598.671 217.097 597.356C216.002 596.022 214.658 595.026 213.065 594.369C211.471 593.692 209.619 593.353 207.508 593.353C203.844 593.353 200.877 594.289 198.606 596.161C196.336 598.013 195.201 600.463 195.201 603.51C195.201 605.92 195.967 607.941 197.501 609.575C199.054 611.208 201.394 612.413 204.521 613.189L211.69 614.982C215.056 615.818 217.605 617.232 219.338 619.224C221.09 621.215 221.967 623.625 221.967 626.453C221.967 628.943 221.309 631.133 219.995 633.025C218.7 634.917 216.908 636.391 214.618 637.447C212.328 638.482 209.679 639 206.672 639C202.589 639 199.253 638.004 196.664 636.013C194.076 634.021 192.393 631.193 191.616 627.529L193.528 627.051C194.205 630.297 195.649 632.786 197.859 634.519C200.09 636.232 203.027 637.088 206.672 637.088C210.655 637.088 213.881 636.112 216.35 634.16C218.82 632.209 220.055 629.64 220.055 626.453C220.055 624.083 219.318 622.082 217.844 620.449C216.37 618.815 214.16 617.63 211.212 616.894L204.043 615.101C200.518 614.225 197.839 612.791 196.007 610.799C194.195 608.808 193.289 606.378 193.289 603.51C193.289 601.1 193.886 598.999 195.081 597.207C196.296 595.395 197.969 593.981 200.1 592.965C202.251 591.949 204.72 591.441 207.508 591.441C211.053 591.441 214.01 592.318 216.38 594.07C218.75 595.803 220.493 598.392 221.608 601.837Z" stroke="black" stroke-width="1.2" mask="url(#path-1-outside-1_72_46)"/>
<path d="M266.975 638.044V592.158H268.886V638.044H266.975ZM267.93 583.794C267.413 583.794 266.965 583.604 266.586 583.226C266.208 582.848 266.019 582.4 266.019 581.882C266.019 581.364 266.208 580.916 266.586 580.537C266.965 580.159 267.413 579.97 267.93 579.97C268.448 579.97 268.896 580.159 269.275 580.537C269.653 580.916 269.842 581.364 269.842 581.882C269.842 582.4 269.653 582.848 269.275 583.226C268.896 583.604 268.448 583.794 267.93 583.794Z" stroke="black" stroke-width="1.2" mask="url(#path-1-outside-1_72_46)"/>
<path d="M318.42 576.863V638.044H316.508V576.863H318.42Z" stroke="black" stroke-width="1.2" mask="url(#path-1-outside-1_72_46)"/>
<path d="M367.222 619.522V616.057H367.939L392.315 592.158H395.063L374.152 612.711L373.913 612.95L367.222 619.522ZM365.788 638.044V576.863H367.7V638.044H365.788ZM393.271 638.044L373.196 612.711L374.63 611.516L395.78 638.044H393.271Z" stroke="black" stroke-width="1.2" mask="url(#path-1-outside-1_72_46)"/>
<path d="M520.172 601.837L518.26 602.315C517.643 600.324 516.776 598.671 515.661 597.356C514.566 596.022 513.222 595.026 511.628 594.369C510.035 593.692 508.183 593.353 506.072 593.353C502.408 593.353 499.44 594.289 497.17 596.161C494.9 598.013 493.765 600.463 493.765 603.51C493.765 605.92 494.531 607.941 496.065 609.575C497.618 611.208 499.958 612.413 503.085 613.189L510.254 614.982C513.62 615.818 516.169 617.232 517.902 619.224C519.654 621.215 520.53 623.625 520.53 626.453C520.53 628.943 519.873 631.133 518.559 633.025C517.264 634.917 515.472 636.391 513.182 637.447C510.892 638.482 508.243 639 505.236 639C501.153 639 497.817 638.004 495.228 636.013C492.639 634.021 490.957 631.193 490.18 627.529L492.092 627.051C492.769 630.297 494.213 632.786 496.423 634.519C498.654 636.232 501.591 637.088 505.236 637.088C509.219 637.088 512.445 636.112 514.914 634.16C517.384 632.209 518.619 629.64 518.619 626.453C518.619 624.083 517.882 622.082 516.408 620.449C514.934 618.815 512.724 617.63 509.776 616.894L502.607 615.101C499.082 614.225 496.403 612.791 494.571 610.799C492.759 608.808 491.853 606.378 491.853 603.51C491.853 601.1 492.45 598.999 493.645 597.207C494.86 595.395 496.533 593.981 498.664 592.965C500.815 591.949 503.284 591.441 506.072 591.441C509.617 591.441 512.574 592.318 514.944 594.07C517.314 595.803 519.057 598.392 520.172 601.837Z" stroke="black" stroke-width="1.2" mask="url(#path-1-outside-1_72_46)"/>
<path d="M576.77 639C574.261 639 571.941 638.482 569.81 637.447C567.699 636.411 565.996 634.897 564.702 632.906C563.427 630.914 562.79 628.484 562.79 625.617C562.79 624.063 563.039 622.609 563.537 621.255C564.035 619.881 564.911 618.636 566.166 617.521C567.42 616.406 569.173 615.45 571.423 614.653C573.694 613.856 576.591 613.249 580.116 612.831C582.227 612.592 584.219 612.313 586.091 611.994C587.963 611.676 589.486 611.198 590.661 610.56C591.836 609.923 592.424 609.007 592.424 607.812V605.064C592.424 601.539 591.239 598.71 588.869 596.579C586.499 594.429 583.342 593.353 579.399 593.353C576.173 593.353 573.355 594.07 570.945 595.504C568.536 596.918 566.853 598.91 565.897 601.479L564.105 600.762C564.821 598.85 565.927 597.197 567.42 595.803C568.914 594.409 570.686 593.333 572.738 592.576C574.789 591.82 577.009 591.441 579.399 591.441C581.729 591.441 583.81 591.79 585.643 592.487C587.495 593.164 589.068 594.12 590.362 595.355C591.657 596.57 592.643 598.003 593.32 599.656C593.997 601.309 594.336 603.112 594.336 605.064V638.044H592.424V628.723H592.185C591.229 630.795 589.984 632.607 588.451 634.16C586.937 635.694 585.185 636.889 583.193 637.745C581.221 638.582 579.081 639 576.77 639ZM576.77 637.088C579.678 637.088 582.317 636.311 584.687 634.758C587.057 633.185 588.939 631.004 590.333 628.216C591.727 625.408 592.424 622.151 592.424 618.447V611.516C591.866 611.935 591.189 612.303 590.392 612.622C589.616 612.94 588.729 613.229 587.734 613.488C586.758 613.727 585.692 613.936 584.537 614.115C583.382 614.295 582.148 614.464 580.833 614.623C576.731 615.101 573.504 615.828 571.154 616.804C568.804 617.78 567.142 619.005 566.166 620.478C565.19 621.952 564.702 623.665 564.702 625.617C564.702 629.082 565.857 631.86 568.167 633.951C570.497 636.043 573.365 637.088 576.77 637.088Z" stroke="black" stroke-width="1.2" mask="url(#path-1-outside-1_72_46)"/>
<path d="M641.935 638.044V592.158H643.847V599.447H644.086C645.161 597.057 646.924 595.146 649.373 593.712C651.843 592.278 654.661 591.561 657.827 591.561C658.066 591.561 658.225 591.561 658.305 591.561C658.385 591.561 658.544 591.561 658.783 591.561V593.473C658.544 593.473 658.385 593.473 658.305 593.473C658.225 593.473 658.066 593.473 657.827 593.473C655.119 593.473 652.709 594.06 650.598 595.235C648.507 596.41 646.854 598.033 645.639 600.105C644.444 602.176 643.847 604.546 643.847 607.214V638.044H641.935Z" stroke="black" stroke-width="1.2" mask="url(#path-1-outside-1_72_46)"/>
<path d="M716.226 639C712.223 639 708.718 637.954 705.71 635.863C702.723 633.772 700.403 630.934 698.75 627.349C697.097 623.764 696.271 619.722 696.271 615.221C696.271 610.72 697.097 606.677 698.75 603.092C700.423 599.507 702.693 596.669 705.561 594.578C708.429 592.487 711.665 591.441 715.27 591.441C717.938 591.441 720.408 592.009 722.678 593.144C724.968 594.279 726.96 595.853 728.653 597.864C730.345 599.876 731.66 602.196 732.596 604.825C733.552 607.434 734.03 610.222 734.03 613.189V615.101H697.227V613.189H732.118C732.118 609.505 731.361 606.169 729.847 603.182C728.334 600.174 726.303 597.784 723.753 596.012C721.204 594.239 718.376 593.353 715.27 593.353C712.123 593.353 709.275 594.289 706.726 596.161C704.177 598.033 702.136 600.583 700.602 603.809C699.069 607.035 698.262 610.68 698.183 614.743V614.982C698.183 618.985 698.88 622.669 700.274 626.035C701.688 629.381 703.739 632.059 706.427 634.071C709.116 636.082 712.382 637.088 716.226 637.088C719.054 637.088 721.423 636.59 723.335 635.594C725.267 634.599 726.81 633.453 727.965 632.159C729.14 630.864 730.007 629.759 730.564 628.843L732.118 629.918C731.441 631.074 730.425 632.358 729.071 633.772C727.717 635.186 725.984 636.411 723.873 637.447C721.762 638.482 719.213 639 716.226 639Z" stroke="black" stroke-width="1.2" mask="url(#path-1-outside-1_72_46)"/>
<path d="M795.901 639C791.898 639 788.393 637.954 785.385 635.863C782.398 633.772 780.078 630.934 778.425 627.349C776.772 623.764 775.946 619.722 775.946 615.221C775.946 610.72 776.772 606.677 778.425 603.092C780.098 599.507 782.368 596.669 785.236 594.578C788.104 592.487 791.34 591.441 794.945 591.441C797.613 591.441 800.083 592.009 802.353 593.144C804.643 594.279 806.635 595.853 808.328 597.864C810.02 599.876 811.335 602.196 812.271 604.825C813.227 607.434 813.705 610.222 813.705 613.189V615.101H776.902V613.189H811.793C811.793 609.505 811.036 606.169 809.523 603.182C808.009 600.174 805.978 597.784 803.429 596.012C800.879 594.239 798.052 593.353 794.945 593.353C791.798 593.353 788.95 594.289 786.401 596.161C783.852 598.033 781.811 600.583 780.277 603.809C778.744 607.035 777.937 610.68 777.858 614.743V614.982C777.858 618.985 778.555 622.669 779.949 626.035C781.363 629.381 783.414 632.059 786.102 634.071C788.791 636.082 792.057 637.088 795.901 637.088C798.729 637.088 801.098 636.59 803.01 635.594C804.942 634.599 806.485 633.453 807.641 632.159C808.815 630.864 809.682 629.759 810.24 628.843L811.793 629.918C811.116 631.074 810.1 632.358 808.746 633.772C807.392 635.186 805.659 636.411 803.548 637.447C801.437 638.482 798.888 639 795.901 639Z" stroke="black" stroke-width="1.2" mask="url(#path-1-outside-1_72_46)"/>
<path d="M885.852 601.837L883.94 602.315C883.323 600.324 882.456 598.671 881.341 597.356C880.246 596.022 878.902 595.026 877.308 594.369C875.715 593.692 873.863 593.353 871.752 593.353C868.088 593.353 865.12 594.289 862.85 596.161C860.58 598.013 859.445 600.463 859.445 603.51C859.445 605.92 860.211 607.941 861.745 609.575C863.298 611.208 865.638 612.413 868.765 613.189L875.934 614.982C879.3 615.818 881.849 617.232 883.582 619.224C885.334 621.215 886.21 623.625 886.21 626.453C886.21 628.943 885.553 631.133 884.239 633.025C882.944 634.917 881.152 636.391 878.862 637.447C876.571 638.482 873.923 639 870.916 639C866.833 639 863.497 638.004 860.908 636.013C858.319 634.021 856.637 631.193 855.86 627.529L857.772 627.051C858.449 630.297 859.893 632.786 862.103 634.519C864.334 636.232 867.271 637.088 870.916 637.088C874.899 637.088 878.125 636.112 880.594 634.16C883.064 632.209 884.299 629.64 884.299 626.453C884.299 624.083 883.562 622.082 882.088 620.449C880.614 618.815 878.404 617.63 875.456 616.894L868.287 615.101C864.762 614.225 862.083 612.791 860.251 610.799C858.439 608.808 857.533 606.378 857.533 603.51C857.533 601.1 858.13 598.999 859.325 597.207C860.54 595.395 862.213 593.981 864.344 592.965C866.494 591.949 868.964 591.441 871.752 591.441C875.297 591.441 878.254 592.318 880.624 594.07C882.994 595.803 884.737 598.392 885.852 601.837Z" stroke="black" stroke-width="1.2" mask="url(#path-1-outside-1_72_46)"/>
<path d="M265.074 479.697C265.074 485.272 260.554 489.792 254.979 489.792C249.404 489.792 244.885 485.272 244.885 479.697C244.885 474.122 249.404 469.602 254.979 469.602C260.554 469.602 265.074 474.122 265.074 479.697Z" stroke="black" stroke-width="1.2" mask="url(#path-1-outside-1_72_46)"/>
<circle cx="255" cy="480" r="10.5" fill="#B47377" stroke="#B47377"/>
<circle cx="670" cy="480" r="10.5" fill="#B47377" stroke="#B47377"/>
</svg>
